{"title":"Gorky Park (1983) BRRip XviD AC3-FWOLF","uid":11635048,"size":1716270867,"categoryP":"video","categoryS":"movies","magnet":"?xt=urn:btih:0f09c52ee9625f28133e3a3c61bc4e52aaf7e71d&amp;dn=Gorky+Park+%281983%29+BRRip+XviD+AC3-FWOLF&amp;tr=udp%3A%2F%2Ftracker.openbittorrent.com%3A80&amp;tr=udp%3A%2F%2Fopen.demonii.com%3A1337&amp;tr=udp%3A%2F%2Ftracker.coppersurfer.tk%3A6969&amp;tr=udp%3A%2F%2Fexodus.desync.com%3A6969","seeders":0,"leechers":1,"uploader":"TvTeam","files":6,"time":1417721883,"description":" &lt;a href=&quot;https://www.torrenting.com&quot; rel=&quot;nofollow&quot; target=&quot;_NEW&quot;&gt;https://www.torrenting.com&lt;/a&gt;\n\nSign up is OPEN - for time being. Come and have fun.\n\n------------------------------------------------------------------Gorky Park (1983) BRRip XviD AC3-FWOLF\n\nimdb.... &lt;a href=&quot;\nhttp://www.imdb.com/title/tt0085615/&quot; rel=&quot;nofollow&quot; target=&quot;_NEW&quot;&gt;\nhttp://www.imdb.com/title/tt0085615/&lt;/a&gt;\n\n\nAn investigator on the Moscow police force relentlessly\npursues the solution to a triple homicide which occurred\nin Moscow's Gorky Park. He finds that no one really wants\nhim to solve the ...\n\n\n\nDirector: Michael Apted\n\nWriters:  Martin Cruz Smith (novel), Dennis Potter \n\n   \nStars:    William Hurt, Lee Marvin, Brian Dennehy\n\n\nFormat                                   : AVI\nFormat/Info                              : Audio Video Interleave\nFile size                                : 1.60 GiB\nDuration                                 : 2h 8mn\nOverall bit rate                         : 1 778 Kbps\n\nVideo\nID                                       : 0\nFormat                                   : MPEG-4 Visual\nFormat profile                           : Advanced Simple@L5\nFormat settings, BVOP                    : 2\nFormat settings, QPel                    : Yes\nFormat settings, GMC                     : No warppoints\nFormat settings, Matrix                  : Default (H.263)\nCodec ID                                 : XVID\nCodec ID/Hint                            : XviD\nDuration                                 : 2h 8mn\nBit rate                                 : 1 578 Kbps\nWidth                                    : 720 pixels\nHeight                                   : 384 pixels\nDisplay aspect ratio                     : 1.85:1\nFrame rate                               : 23.976 fps\nColor space                              : YUV\nChroma subsampling                       : 4:2:0\nBit depth                                : 8 bits\nScan type                                : Progressive\nCompression mode                         : Lossy\nBits/(Pixel*Frame)                       : 0.238\nStream size                              : 1.42 GiB (89%)\nWriting library                          : XviD 1.2.1 (UTC 2008-12-04)\n\nAudio\nID                                       : 1\nFormat                                   : AC-3\nFormat/Info                              : Audio Coding 3\nMode extension                           : CM (complete main)\nFormat settings, Endianness              : Big\nCodec ID                                 : 2000\nDuration                                 : 2h 8mn\nBit rate mode                            : Constant\nBit rate                                 : 192 Kbps\nChannel(s)                               : 2 channels\nChannel positions                        : Front: L R\nSampling rate                            : 48.0 KHz\nBit depth                                : 16 bits\nCompression mode                         : Lossy\nStream size                              : 177 MiB (11%)\nAlignment                                : Aligned on interleaves\nInterleave, duration                     : 64 ms (1.53 video frames)\nInterleave, preload duration             : 192 ms\nTitle                                    : English\n\n\n\n\n\nEncoded....................FWOLF              \n\nSource.....................720p.BluRay.x264-SiNNERS (Thanks!)\n\nSample.....................Yes\n\nSubs.......................(srt)English,Greek \n\n\n\n\n\n[img]http://s2.postimg.org/6okdblya1/image.png[/img]\n\n\n\n\n[img]http://s30.postimg.org/lrwkvp801/image.png[/img]\n\n\n\n\n[img]http://s11.postimg.org/x5sfl1ksj/image.png[/img]\n\n\n\n\nGreetz To: PsiX | Blacksheep | CFR | tomcat-12...\n.....and all P2P Encoders and Groups","torrent":{"xt":"urn:btih:0f09c52ee9625f28133e3a3c61bc4e52aaf7e71d","amp;dn":"Gorky+Park+%281983%29+BRRip+XviD+AC3-FWOLF","amp;tr":["udp%3A%2F%2Ftracker.openbittorrent.com%3A80","udp%3A%2F%2Fopen.demonii.com%3A1337","udp%3A%2F%2Ftracker.coppersurfer.tk%3A6969","udp%3A%2F%2Fexodus.desync.com%3A6969"],"infoHash":"0f09c52ee9625f28133e3a3c61bc4e52aaf7e71d","infoHashBuffer":{"type":"Buffer","data":[15,9,197,46,233,98,95,40,19,62,58,60,97,188,78,82,170,247,231,29]},"announce":[],"urlList":[]}}